# xmcd
#
# Track frame offsets:
#	150
#	18554
#	37488
#	47336
#	68317
#	84126
#	104615
#	114181
#	131316
#	148363
#	170900
#	187527
#	214987
#	237782
#
# Disc length: 3501 seconds
# Revision: 1
# Processed by: cddbd v1.5.2PL0 Copyright (c) Steve Scherf et al.
# Submitted via: dBpowerAMP V12.0
#
DISCID=ba0dab0e
DTITLE=Andy Poxon - Tomorrow
DYEAR=2013
DGENRE=Blues
TTITLE0=Too Bad
TTITLE1=You Lied
TTITLE2=College Boy
TTITLE3=Why
TTITLE4=Don't Come Home
TTITLE5=Tomorrow
TTITLE6=All By Myself
TTITLE7=Without Me
TTITLE8=You Don't Love Me
TTITLE9=Please Come Home
TTITLE10=Fooling Around
TTITLE11=Carol Anne
TTITLE12=One More Time
TTITLE13=Jammin' At Lakewest
EXTD=
EXTT0=
EXTT1=
EXTT2=
EXTT3=
EXTT4=
EXTT5=
EXTT6=
EXTT7=
EXTT8=
EXTT9=
EXTT10=
EXTT11=
EXTT12=
EXTT13=
PLAYORDER=
